<?xml version="1.0" encoding="utf-8"?>
<!-- Generator: Adobe Illustrator 16.2.1, SVG Export Plug-In . SVG Version: 6.00 Build 0)  -->
<!DOCTYPE svg PUBLIC "-//W3C//DTD SVG 1.1//EN" "http://www.w3.org/Graphics/SVG/1.1/DTD/svg11.dtd">
<svg version="1.1" id="Layer_1" xmlns="http://www.w3.org/2000/svg" xmlns:xlink="http://www.w3.org/1999/xlink" x="0px" y="0px"
	 width="589.922px" height="100px" viewBox="2.619 298.258 589.922 245.375"
	 enable-background="new 2.619 298.258 589.922 245.375" xml:space="preserve">
<g>
	<path fill="none" d="M335.381,526.488c-0.715-0.536-1.548-0.773-2.501-0.773c-1.012,0-1.964,0.297-2.738,0.893
		c-0.476,0.357-0.952,1.012-1.369,1.905h8.097C336.631,527.679,336.095,526.965,335.381,526.488z"/>
	<path fill="none" d="M478.843,525.952c-1.131,0-2.083,0.417-2.857,1.25c-0.773,0.834-1.131,1.846-1.131,3.155
		s0.417,2.322,1.19,3.155c0.774,0.833,1.727,1.25,2.857,1.25c1.19,0,2.144-0.417,2.917-1.25c0.774-0.834,1.131-1.905,1.131-3.215
		s-0.356-2.321-1.131-3.155C480.987,526.369,480.033,525.952,478.843,525.952z"/>
	<path fill="none" d="M82.327,450.352c-2.917,0-5.655,0.715-8.155,2.144s-4.465,3.452-5.953,6.071s-2.202,5.357-2.202,8.274
		s0.714,5.655,2.202,8.274s3.453,4.703,5.953,6.132c2.5,1.488,5.179,2.202,8.036,2.202c2.917,0,5.596-0.714,8.215-2.202
		c2.56-1.429,4.584-3.453,5.953-5.894c1.369-2.5,2.083-5.298,2.083-8.394c0-4.762-1.548-8.69-4.702-11.905
		C90.602,451.84,86.852,450.352,82.327,450.352z"/>
	<path fill="none" d="M189.776,475.115c1.488-2.619,2.202-5.357,2.202-8.274s-0.714-5.655-2.202-8.334
		c-1.488-2.619-3.453-4.702-5.953-6.131c-2.5-1.488-5.179-2.203-7.977-2.203c-2.917,0-5.655,0.715-8.215,2.203
		c-2.619,1.488-4.584,3.452-6.013,5.953c-1.429,2.5-2.083,5.298-2.083,8.393c0,4.763,1.548,8.691,4.702,11.906
		c3.155,3.154,6.965,4.762,11.549,4.762c2.917,0,5.655-0.714,8.155-2.143C186.323,479.699,188.287,477.676,189.776,475.115z"/>
	<path fill="none" d="M391.932,526.488c-0.714-0.536-1.547-0.773-2.5-0.773c-1.012,0-1.964,0.297-2.738,0.893
		c-0.476,0.357-0.952,1.012-1.369,1.905h8.096C393.123,527.679,392.647,526.965,391.932,526.488z"/>
	<path fill="none" d="M583.97,465.531c-0.238,0.536-0.357,1.072-0.357,1.607c0,0.952,0.298,1.727,0.893,2.44
		c0.417,0.477,1.072,0.894,1.965,1.132v-7.144c-0.655,0.179-1.19,0.416-1.548,0.714C584.505,464.639,584.208,464.996,583.97,465.531
		z"/>
	<path fill="none" d="M418.363,456.186c-2.023-1.429-4.346-2.143-6.965-2.143c-2.857,0-5.417,0.773-7.56,2.381
		c-1.369,1.012-2.619,2.738-3.811,5.238h22.383C421.697,459.46,420.327,457.614,418.363,456.186z"/>
	<path fill="none" d="M407.171,525.952c-1.131,0-2.083,0.417-2.857,1.25c-0.773,0.834-1.131,1.846-1.131,3.155
		s0.417,2.322,1.19,3.155c0.774,0.833,1.727,1.25,2.857,1.25c1.19,0,2.144-0.417,2.917-1.25c0.774-0.834,1.131-1.905,1.131-3.215
		s-0.416-2.321-1.131-3.155C409.374,526.369,408.362,525.952,407.171,525.952z"/>
	<path fill="none" d="M460.449,526.012c-1.191,0-2.144,0.417-2.917,1.19c-0.774,0.774-1.132,1.786-1.132,2.977
		c0,1.25,0.417,2.263,1.191,3.036c0.773,0.773,1.785,1.19,2.976,1.19c1.132,0,2.144-0.417,2.857-1.19
		c0.774-0.773,1.132-1.786,1.132-3.036s-0.357-2.262-1.132-3.035C462.592,526.429,461.64,526.012,460.449,526.012z"/>
	<path fill="none" d="M433.483,526.071c-1.131,0-2.143,0.417-2.917,1.19c-0.773,0.834-1.131,1.846-1.131,3.096
		c0,1.31,0.357,2.322,1.131,3.155c0.774,0.833,1.727,1.19,2.917,1.19s2.144-0.417,2.917-1.25c0.774-0.833,1.19-1.846,1.19-3.155
		s-0.357-2.321-1.131-3.096C435.626,526.429,434.673,526.071,433.483,526.071z"/>
	<path fill="none" d="M500.69,454.936c-3.214,0-5.893,1.131-7.977,3.334c-2.143,2.202-3.215,5.06-3.215,8.571
		c0,3.572,1.072,6.489,3.155,8.691c2.084,2.202,4.763,3.334,7.977,3.334c3.215,0,5.894-1.132,8.036-3.334
		c2.144-2.262,3.215-5.119,3.215-8.632c0-3.512-1.071-6.369-3.155-8.571C506.702,456.066,503.964,454.936,500.69,454.936z"/>
	<path fill="none" d="M234.065,450.471c-4.405,0-8.156,1.607-11.311,4.882c-3.155,3.273-4.703,7.144-4.703,11.786
		c0,2.977,0.715,5.715,2.144,8.274s3.393,4.524,5.833,5.953c2.441,1.369,5.12,2.083,8.037,2.083c2.916,0,5.595-0.714,8.096-2.083
		c2.44-1.369,4.404-3.394,5.833-5.953s2.144-5.357,2.144-8.274c0-4.584-1.607-8.513-4.763-11.786
		C242.16,452.078,238.409,450.471,234.065,450.471z"/>
	<polygon fill="none" points="239.659,530.119 239.659,523.393 235.076,530.119 	"/>
	<path fill="none" d="M222.278,529.286c-0.714,0-1.31,0.238-1.786,0.773c-0.476,0.536-0.714,1.191-0.714,1.965
		s0.238,1.429,0.773,1.964c0.536,0.536,1.072,0.774,1.786,0.774s1.31-0.238,1.846-0.774c0.535-0.535,0.773-1.19,0.773-1.964
		s-0.238-1.429-0.773-1.965C223.647,529.524,222.992,529.286,222.278,529.286z"/>
	<path fill="none" d="M206.8,520.773c-0.654,0-1.19,0.179-1.726,0.596c-0.477,0.416-0.894,1.131-1.132,2.143
		c-0.237,1.012-0.416,2.5-0.416,4.465c0,2.56,0.297,4.286,0.893,5.298c0.596,0.952,1.369,1.488,2.381,1.488
		c0.953,0,1.667-0.477,2.203-1.369c0.654-1.131,1.012-2.977,1.012-5.596c0-2.679-0.298-4.465-0.893-5.477
		C208.527,521.31,207.753,520.773,206.8,520.773z"/>
	<polygon fill="none" points="192.633,530.119 192.633,523.393 188.049,530.119 	"/>
	<path fill="none" d="M566.766,526.071c-1.131,0-2.143,0.417-2.917,1.19c-0.773,0.834-1.131,1.846-1.131,3.096
		c0,1.31,0.357,2.322,1.131,3.155c0.774,0.833,1.727,1.19,2.917,1.19s2.144-0.417,2.917-1.25c0.774-0.833,1.19-1.846,1.19-3.155
		s-0.356-2.321-1.131-3.096C568.909,526.429,567.897,526.071,566.766,526.071z"/>
	<path fill="none" d="M147.987,520.893c-1.846,0-3.452,0.655-4.702,1.965c-1.251,1.31-1.905,2.976-1.905,4.94
		c0,2.202,0.773,3.988,2.381,5.298c1.25,1.012,2.679,1.548,4.286,1.548c1.846,0,3.334-0.654,4.644-1.964
		c1.25-1.311,1.904-2.917,1.904-4.882c0-1.905-0.654-3.571-1.904-4.881C151.38,521.548,149.832,520.893,147.987,520.893z"/>
	<path fill="none" d="M533.133,525.952c-1.131,0-2.084,0.417-2.857,1.25c-0.774,0.834-1.131,1.846-1.131,3.155
		s0.416,2.322,1.19,3.155c0.773,0.833,1.726,1.25,2.857,1.25c1.19,0,2.143-0.417,2.917-1.25c0.773-0.834,1.131-1.905,1.131-3.215
		s-0.417-2.321-1.131-3.155C535.335,526.369,534.323,525.952,533.133,525.952z"/>
	<rect x="115.901" y="517.678" fill="#FEFEFE" width="3.811" height="20.181"/>
	<path fill="#FEFEFE" d="M132.747,527.977c-0.298-0.298-1.19-1.071-2.679-2.321c-1.548-1.31-2.5-2.203-2.798-2.561
		c-0.238-0.297-0.357-0.595-0.357-0.952s0.179-0.654,0.477-0.893s0.715-0.417,1.25-0.417c1.012,0,2.024,0.715,3.036,2.084
		l2.857-2.501c-1.071-1.25-2.024-2.083-2.977-2.56c-0.893-0.476-1.846-0.714-2.857-0.714c-1.548,0-2.857,0.476-3.929,1.488
		c-1.071,1.012-1.607,2.202-1.607,3.571c0,0.952,0.298,1.965,0.952,2.917c0.655,0.952,2.084,2.381,4.227,4.167
		c1.132,0.952,1.905,1.607,2.263,2.083c0.357,0.477,0.535,0.894,0.535,1.369c0,0.477-0.237,0.953-0.654,1.311
		c-0.477,0.356-1.012,0.595-1.667,0.595c-1.25,0-2.381-0.893-3.334-2.679l-3.214,1.965c0.773,1.488,1.667,2.619,2.738,3.333
		c1.071,0.715,2.321,1.071,3.75,1.071c1.846,0,3.334-0.535,4.465-1.607c1.131-1.071,1.727-2.44,1.727-4.107
		c0-0.833-0.179-1.606-0.477-2.321C134.057,529.524,133.522,528.81,132.747,527.977z"/>
	<path fill="#FEFEFE" d="M148.046,517.143c-1.905,0-3.631,0.476-5.238,1.429c-1.607,0.952-2.917,2.202-3.81,3.869
		c-0.953,1.607-1.369,3.393-1.369,5.298c0,2.857,1.012,5.357,2.976,7.441c2.024,2.083,4.524,3.154,7.501,3.154
		c2.857,0,5.357-1.012,7.382-3.035c2.023-2.024,3.035-4.524,3.035-7.441c0-2.977-1.012-5.477-3.095-7.561
		C153.344,518.154,150.904,517.143,148.046,517.143z M152.69,532.62c-1.25,1.31-2.798,1.964-4.644,1.964
		c-1.607,0-3.036-0.536-4.286-1.548c-1.607-1.31-2.381-3.036-2.381-5.298c0-2.023,0.654-3.631,1.905-4.94
		c1.25-1.31,2.856-1.965,4.702-1.965s3.394,0.655,4.703,1.965s1.904,2.976,1.904,4.881
		C154.594,529.703,153.999,531.311,152.69,532.62z"/>
	<polygon fill="#FEFEFE" points="169.952,521.25 174.119,521.25 174.119,537.799 177.929,537.799 177.929,517.678 172.214,517.678 	
		"/>
	<path fill="#FEFEFE" d="M196.383,517.143h-3.81l-8.691,12.977v3.572h8.751v4.167h3.75v-4.167h1.786v-3.572h-1.786V517.143z
		 M192.633,530.119h-4.584l4.584-6.786V530.119z"/>
	<path fill="#FEFEFE" d="M210.491,518.214c-1.072-0.714-2.322-1.071-3.811-1.071c-2.262,0-4.048,0.893-5.298,2.738
		c-1.131,1.667-1.726,4.346-1.726,8.036c0,2.619,0.297,4.703,0.893,6.132c0.595,1.428,1.369,2.5,2.44,3.214
		c1.012,0.715,2.321,1.071,3.81,1.071s2.738-0.356,3.751-1.071c1.012-0.714,1.785-1.786,2.381-3.273
		c0.595-1.488,0.893-3.572,0.893-6.251s-0.298-4.703-0.893-6.19C212.396,520.06,211.563,518.928,210.491,518.214z M209.003,533.394
		c-0.536,0.952-1.31,1.369-2.203,1.369c-0.952,0-1.726-0.477-2.381-1.488c-0.596-0.952-0.893-2.738-0.893-5.298
		c0-1.965,0.119-3.453,0.416-4.465c0.238-1.012,0.655-1.727,1.132-2.143c0.476-0.417,1.071-0.596,1.726-0.596
		c0.953,0,1.727,0.477,2.322,1.488c0.595,1.012,0.893,2.857,0.893,5.477C210.015,530.417,209.657,532.263,209.003,533.394z"/>
	<path fill="#FEFEFE" d="M222.456,525.655l3.512-6.846l-3.273-1.607l-5.179,10.119c-0.655,1.31-1.132,2.263-1.311,2.917
		c-0.178,0.655-0.297,1.25-0.297,1.905c0,1.607,0.595,3.096,1.785,4.346c1.191,1.25,2.738,1.904,4.524,1.904
		c1.727,0,3.215-0.595,4.465-1.845s1.846-2.679,1.846-4.465s-0.596-3.334-1.786-4.584
		C225.612,526.25,224.183,525.655,222.456,525.655z M224.123,533.93c-0.536,0.535-1.131,0.773-1.846,0.773
		c-0.654,0-1.25-0.238-1.786-0.773c-0.476-0.536-0.773-1.191-0.773-1.965s0.238-1.429,0.714-1.965
		c0.477-0.535,1.072-0.773,1.786-0.773c0.774,0,1.369,0.238,1.846,0.773c0.476,0.536,0.773,1.191,0.773,1.965
		C224.897,532.798,224.599,533.453,224.123,533.93z"/>
	<path fill="#FEFEFE" d="M243.41,517.143H239.6l-8.69,12.977v3.572h8.75v4.167h3.751v-4.167h1.785v-3.572h-1.785V517.143z
		 M239.659,530.119h-4.583l4.583-6.786V530.119z"/>
	<rect x="248.41" y="528.631" fill="#FEFEFE" width="6.965" height="3.453"/>
	<polygon fill="#FEFEFE" points="260.138,521.25 264.245,521.25 264.245,537.799 268.055,537.799 268.055,517.678 262.34,517.678 	
		"/>
	<path fill="#FEFEFE" d="M289.663,523.393c-1.131,0-2.143,0.417-2.977,1.25c-0.833,0.834-1.25,1.786-1.25,2.977
		s0.417,2.144,1.25,2.977c0.834,0.833,1.786,1.25,2.977,1.25c1.131,0,2.143-0.417,2.977-1.25c0.833-0.833,1.25-1.846,1.25-2.977
		c0-1.19-0.417-2.143-1.25-2.977C291.806,523.81,290.794,523.393,289.663,523.393z"/>
	<path fill="#FEFEFE" d="M315.498,526.012c0.773,0,1.429,0.119,2.024,0.357c0.595,0.238,1.131,0.655,1.726,1.25l3.096-1.727
		c-0.773-1.071-1.727-1.904-2.857-2.5c-1.19-0.595-2.5-0.893-3.988-0.893c-1.607,0-3.036,0.357-4.346,1.012
		c-1.31,0.715-2.321,1.667-3.036,2.857c-0.714,1.19-1.071,2.56-1.071,3.988c0,2.084,0.715,3.929,2.203,5.477
		s3.512,2.321,6.131,2.321c2.917,0,5.179-1.012,6.727-3.095l-2.917-2.024c-0.952,1.131-2.202,1.727-3.929,1.727
		c-1.369,0-2.44-0.417-3.273-1.19c-0.834-0.774-1.25-1.846-1.25-3.096c0-1.31,0.416-2.381,1.31-3.215
		C312.939,526.429,314.07,526.012,315.498,526.012z"/>
	<path fill="#FEFEFE" d="M332.702,522.5c-2.203,0-4.049,0.773-5.478,2.262c-1.487,1.488-2.202,3.394-2.202,5.655
		c0,2.203,0.715,4.048,2.202,5.536c1.488,1.488,3.394,2.202,5.715,2.202c1.488,0,2.798-0.237,3.869-0.773
		c1.072-0.536,2.024-1.369,2.798-2.5l-3.154-1.488c-1.013,0.952-2.203,1.488-3.572,1.488c-1.19,0-2.143-0.298-2.857-0.952
		c-0.773-0.596-1.19-1.488-1.369-2.501h11.966v-0.714c0-2.44-0.715-4.465-2.203-5.953S335.024,522.5,332.702,522.5z
		 M328.773,528.513c0.417-0.953,0.894-1.548,1.369-1.905c0.774-0.596,1.727-0.893,2.738-0.893c0.953,0,1.786,0.237,2.501,0.773
		c0.714,0.536,1.19,1.19,1.428,2.024H328.773z"/>
	<path fill="#FEFEFE" d="M347.286,523.095c-0.596,0.357-1.012,0.953-1.369,1.667v-1.904h-3.215v14.882h3.691v-6.013v-0.714
		c0-2.084,0.178-3.453,0.595-4.167c0.417-0.715,0.893-1.072,1.429-1.072c0.298,0,0.655,0.119,1.071,0.357l1.19-3.214
		c-0.535-0.238-1.012-0.357-1.487-0.357C348.536,522.5,347.881,522.738,347.286,523.095z"/>
	<polygon fill="#FEFEFE" points="356.751,517.44 353.001,517.44 353.001,522.917 351.096,522.917 351.096,526.131 353.001,526.131 
		353.001,537.799 356.751,537.799 356.751,526.131 358.953,526.131 358.953,522.917 356.751,522.917 	"/>
	<rect x="360.561" y="522.917" fill="#FEFEFE" width="3.75" height="14.882"/>
	<path fill="#FEFEFE" d="M362.406,516.785c-0.655,0-1.19,0.238-1.667,0.715c-0.477,0.476-0.714,1.012-0.714,1.666
		c0,0.715,0.237,1.25,0.714,1.727s1.012,0.715,1.727,0.715c0.654,0,1.19-0.238,1.667-0.715c0.476-0.477,0.714-1.012,0.714-1.727
		c0-0.654-0.238-1.25-0.714-1.726C363.656,516.964,363.061,516.785,362.406,516.785z"/>
	<path fill="#FEFEFE" d="M375.8,517.321c-0.773-0.357-1.727-0.536-2.857-0.536c-1.25,0-2.321,0.238-3.214,0.715
		c-0.894,0.476-1.548,1.131-1.965,1.964s-0.596,1.965-0.596,3.453h-1.369v3.154h1.369v11.728h3.751v-11.728h2.202v-3.154h-2.202
		c0-0.894,0.06-1.488,0.179-1.727c0.178-0.417,0.416-0.715,0.714-0.952c0.298-0.238,0.715-0.357,1.071-0.357
		c0.417,0,0.834,0.119,1.131,0.357c0.298,0.237,0.536,0.535,0.715,1.012h3.869c-0.179-1.012-0.477-1.846-0.952-2.5
		C377.229,518.154,376.634,517.678,375.8,517.321z"/>
	<rect x="374.907" y="522.917" fill="#FEFEFE" width="3.75" height="14.882"/>
	<path fill="#FEFEFE" d="M389.194,522.5c-2.202,0-4.048,0.773-5.477,2.262c-1.488,1.488-2.202,3.394-2.202,5.655
		c0,2.203,0.714,4.048,2.202,5.536s3.394,2.202,5.715,2.202c1.488,0,2.798-0.237,3.869-0.773c1.072-0.536,2.024-1.369,2.798-2.5
		l-3.154-1.488c-1.013,0.952-2.203,1.488-3.572,1.488c-1.19,0-2.143-0.298-2.857-0.952c-0.773-0.596-1.19-1.488-1.369-2.501h11.966
		v-0.714c0-2.44-0.715-4.465-2.203-5.953C393.48,523.273,391.575,522.5,389.194,522.5z M385.265,528.513
		c0.417-0.953,0.894-1.548,1.369-1.905c0.774-0.596,1.727-0.893,2.738-0.893c0.953,0,1.786,0.237,2.5,0.773
		c0.715,0.536,1.191,1.19,1.429,2.024H385.265z"/>
	<path fill="#FEFEFE" d="M411.1,524.523c-0.654-0.654-1.369-1.19-2.143-1.547c-0.773-0.357-1.607-0.536-2.5-0.536
		c-1.965,0-3.572,0.714-4.941,2.202s-2.023,3.334-2.023,5.655c0,2.203,0.714,4.048,2.083,5.596c1.429,1.488,3.096,2.263,5.001,2.263
		c0.833,0,1.667-0.179,2.381-0.477c0.715-0.298,1.488-0.834,2.202-1.488v1.548h3.751v-20.656h-3.751v7.44H411.1z M410.088,533.572
		c-0.773,0.833-1.727,1.25-2.917,1.25c-1.131,0-2.083-0.417-2.857-1.25c-0.773-0.834-1.19-1.905-1.19-3.155s0.357-2.321,1.131-3.155
		c0.774-0.833,1.727-1.25,2.857-1.25c1.191,0,2.144,0.417,2.917,1.191c0.774,0.833,1.131,1.845,1.131,3.154
		C411.279,531.667,410.863,532.738,410.088,533.572z"/>
	<path fill="#FEFEFE" d="M437.411,523.571c-1.25-0.714-2.56-1.071-3.929-1.071c-1.964,0-3.631,0.654-5.179,2.023
		c-1.727,1.548-2.56,3.513-2.56,5.834c0,2.203,0.773,4.048,2.262,5.536c1.488,1.548,3.334,2.263,5.477,2.263
		c1.429,0,2.798-0.357,3.988-1.013c1.19-0.714,2.144-1.667,2.857-2.857c0.715-1.25,1.071-2.56,1.071-3.929s-0.356-2.679-1.012-3.929
		C439.615,525.238,438.602,524.286,437.411,523.571z M436.4,533.513c-0.773,0.833-1.727,1.25-2.917,1.25s-2.143-0.417-2.917-1.19
		c-0.773-0.834-1.131-1.846-1.131-3.155c0-1.25,0.357-2.321,1.131-3.096c0.774-0.833,1.727-1.19,2.917-1.19s2.144,0.417,2.917,1.19
		c0.774,0.774,1.131,1.846,1.131,3.096S437.174,532.68,436.4,533.513z"/>
	<path fill="#FEFEFE" d="M448.068,523.095c-0.596,0.357-1.013,0.953-1.369,1.667v-1.904h-3.215v14.882h3.69v-6.013v-0.714
		c0-2.084,0.179-3.453,0.596-4.167c0.417-0.715,0.893-1.072,1.429-1.072c0.298,0,0.654,0.119,1.071,0.357l1.131-3.214
		c-0.535-0.238-1.012-0.357-1.488-0.357C449.258,522.5,448.662,522.738,448.068,523.095z"/>
	<path fill="#FEFEFE" d="M464.319,524.523c-0.774-0.714-1.548-1.25-2.322-1.547c-0.773-0.298-1.547-0.477-2.44-0.477
		c-1.845,0-3.393,0.654-4.702,1.964c-1.488,1.429-2.203,3.334-2.203,5.715c0,2.203,0.715,4.048,2.084,5.477s3.035,2.144,5.06,2.144
		c0.893,0,1.727-0.119,2.44-0.417c0.715-0.298,1.429-0.773,2.084-1.429c0,1.19-0.119,2.084-0.357,2.56
		c-0.238,0.477-0.654,0.894-1.31,1.19c-0.596,0.298-1.429,0.477-2.44,0.477c-0.774,0-1.488-0.119-2.024-0.298
		c-0.595-0.238-1.071-0.535-1.429-0.952h-4.107c0.357,1.012,0.834,1.846,1.548,2.56c0.715,0.715,1.548,1.25,2.5,1.607
		c1.013,0.357,2.203,0.536,3.691,0.536c2.738,0,4.762-0.774,6.131-2.441c1.012-1.19,1.548-3.035,1.548-5.536v-12.798h-3.75V524.523z
		 M463.365,533.274c-0.773,0.774-1.726,1.19-2.856,1.19c-1.191,0-2.144-0.416-2.977-1.19c-0.774-0.773-1.19-1.786-1.19-3.036
		c0-1.19,0.356-2.202,1.131-2.977c0.773-0.773,1.727-1.19,2.917-1.19s2.143,0.417,2.917,1.19c0.773,0.774,1.131,1.786,1.131,3.036
		C464.497,531.488,464.14,532.501,463.365,533.274z"/>
	<path fill="#FEFEFE" d="M482.772,524.523c-0.654-0.654-1.369-1.19-2.143-1.547c-0.773-0.357-1.607-0.536-2.5-0.536
		c-1.965,0-3.572,0.714-4.941,2.202s-2.023,3.334-2.023,5.655c0,2.203,0.714,4.048,2.083,5.596c1.429,1.488,3.036,2.263,5.001,2.263
		c0.833,0,1.666-0.179,2.381-0.477c0.714-0.298,1.488-0.834,2.202-1.488v1.548h3.751v-14.882h-3.811V524.523z M481.76,533.572
		c-0.773,0.833-1.727,1.25-2.917,1.25c-1.131,0-2.083-0.417-2.857-1.25c-0.773-0.834-1.19-1.905-1.19-3.155s0.357-2.321,1.131-3.155
		c0.774-0.833,1.727-1.25,2.857-1.25c1.19,0,2.144,0.417,2.917,1.191c0.774,0.833,1.131,1.845,1.131,3.154
		C482.95,531.667,482.533,532.738,481.76,533.572z"/>
	<path fill="#FEFEFE" d="M498.428,522.5c-0.715,0-1.429,0.119-2.084,0.417c-0.714,0.297-1.428,0.773-2.321,1.487v-1.547h-3.75
		v14.882h3.75v-5.953c0-1.548,0.06-2.56,0.179-3.036c0.179-0.893,0.596-1.606,1.131-2.083c0.536-0.477,1.19-0.774,1.965-0.774
		c0.595,0,1.071,0.179,1.488,0.477c0.416,0.298,0.654,0.774,0.833,1.31c0.179,0.596,0.238,1.786,0.238,3.572v6.548h3.69v-9.882
		c0-1.727-0.416-3.036-1.31-3.869C501.166,523.035,499.916,522.5,498.428,522.5z"/>
	<path fill="#FEFEFE" d="M508.548,516.785c-0.655,0-1.191,0.238-1.667,0.715c-0.477,0.476-0.715,1.012-0.715,1.666
		c0,0.715,0.238,1.25,0.715,1.727c0.476,0.477,1.012,0.715,1.727,0.715c0.654,0,1.19-0.238,1.666-0.715
		c0.477-0.477,0.715-1.012,0.715-1.727c0-0.654-0.238-1.25-0.715-1.726C509.739,517.023,509.202,516.785,508.548,516.785z"/>
	<rect x="506.643" y="522.917" fill="#FEFEFE" width="3.75" height="14.882"/>
	<path fill="#FEFEFE" d="M519.382,528.75l-1.369-0.714c-0.596-0.298-0.953-0.536-1.131-0.715c-0.119-0.179-0.238-0.356-0.238-0.535
		c0-0.238,0.119-0.477,0.356-0.655c0.238-0.179,0.536-0.238,1.013-0.238c0.773,0,1.606,0.477,2.56,1.369l2.321-2.321
		c-0.595-0.773-1.31-1.429-2.143-1.846c-0.834-0.416-1.786-0.654-2.738-0.654c-1.429,0-2.56,0.417-3.453,1.25
		c-0.893,0.833-1.369,1.846-1.369,3.036c0,1.845,1.19,3.333,3.632,4.583l1.25,0.655c1.071,0.536,1.607,1.131,1.607,1.667
		c0,0.298-0.179,0.595-0.477,0.833s-0.715,0.357-1.19,0.357c-0.477,0-0.953-0.179-1.548-0.477c-0.596-0.298-1.071-0.714-1.548-1.25
		l-2.321,2.5c1.31,1.727,3.035,2.56,5.179,2.56c1.607,0,2.917-0.416,3.929-1.31c0.952-0.893,1.429-1.964,1.429-3.333
		c0-1.012-0.298-1.846-0.833-2.619C521.823,530.179,520.811,529.465,519.382,528.75z"/>
	<path fill="#FEFEFE" d="M537.062,524.523c-0.655-0.654-1.369-1.19-2.144-1.547c-0.773-0.357-1.606-0.536-2.5-0.536
		c-1.964,0-3.571,0.714-4.94,2.202s-2.024,3.334-2.024,5.655c0,2.203,0.715,4.048,2.084,5.596c1.429,1.488,3.096,2.263,5,2.263
		c0.834,0,1.667-0.179,2.381-0.477c0.715-0.298,1.488-0.834,2.203-1.488v1.548h3.75v-14.882h-3.75v1.666H537.062z M536.11,533.572
		c-0.774,0.833-1.727,1.25-2.917,1.25c-1.132,0-2.084-0.417-2.857-1.25c-0.774-0.834-1.19-1.905-1.19-3.155s0.356-2.321,1.131-3.155
		c0.773-0.833,1.727-1.25,2.857-1.25c1.19,0,2.143,0.417,2.917,1.191c0.773,0.833,1.131,1.845,1.131,3.154
		C537.24,531.667,536.883,532.738,536.11,533.572z"/>
	<polygon fill="#FEFEFE" points="548.788,517.44 545.038,517.44 545.038,522.917 543.133,522.917 543.133,526.131 545.038,526.131 
		545.038,537.799 548.788,537.799 548.788,526.131 550.991,526.131 550.991,522.917 548.788,522.917 	"/>
	<rect x="552.599" y="522.917" fill="#FEFEFE" width="3.75" height="14.882"/>
	<path fill="#FEFEFE" d="M554.444,516.785c-0.654,0-1.19,0.238-1.667,0.715c-0.476,0.476-0.714,1.012-0.714,1.666
		c0,0.715,0.238,1.25,0.714,1.727c0.477,0.477,1.013,0.715,1.667,0.715c0.655,0,1.19-0.238,1.667-0.715s0.714-1.012,0.714-1.727
		c0-0.654-0.237-1.25-0.714-1.726C555.634,517.023,555.099,516.785,554.444,516.785z"/>
	<path fill="#FEFEFE" d="M570.635,523.571c-1.25-0.714-2.56-1.071-3.929-1.071c-1.964,0-3.631,0.654-5.179,2.023
		c-1.727,1.548-2.56,3.513-2.56,5.834c0,2.203,0.773,4.048,2.262,5.536c1.488,1.548,3.334,2.263,5.477,2.263
		c1.429,0,2.798-0.357,3.988-1.013c1.191-0.714,2.144-1.667,2.857-2.857c0.715-1.25,1.072-2.56,1.072-3.929
		s-0.357-2.679-1.013-3.929C572.838,525.238,571.886,524.286,570.635,523.571z M569.623,533.513c-0.773,0.833-1.727,1.25-2.917,1.25
		s-2.143-0.417-2.917-1.19c-0.773-0.834-1.131-1.846-1.131-3.155c0-1.25,0.417-2.321,1.131-3.096c0.774-0.833,1.727-1.19,2.917-1.19
		s2.144,0.417,2.917,1.19c0.774,0.774,1.131,1.846,1.131,3.096S570.398,532.68,569.623,533.513z"/>
	<path fill="#FEFEFE" d="M585.755,522.5c-0.714,0-1.429,0.119-2.083,0.417c-0.715,0.297-1.429,0.773-2.321,1.487v-1.547H577.6
		v14.882h3.751v-5.953c0-1.548,0.06-2.56,0.179-3.036c0.178-0.893,0.595-1.606,1.131-2.083c0.535-0.477,1.19-0.774,1.964-0.774
		c0.596,0,1.071,0.179,1.488,0.477s0.655,0.774,0.834,1.31c0.178,0.596,0.237,1.786,0.237,3.572v6.548h3.691v-9.882
		c0-1.727-0.417-3.036-1.31-3.869C588.493,523.035,587.243,522.5,585.755,522.5z"/>
	<path fill="#FEFEFE" d="M567.54,407.908c-2.798,1.905-6.132,3.096-9.703,3.334v77.208h9.703V407.908z"/>
	<path fill="#FEFEFE" d="M25.597,450.232c6.311,0,11.251,2.382,14.882,7.203l4.167-2.619c-1.25-2.083-2.738-3.75-4.523-5.06
		c-1.786-1.31-3.93-2.44-6.489-3.215c-2.56-0.833-5.179-1.25-7.917-1.25c-4.346,0-8.274,0.952-11.786,2.857
		c-3.513,1.905-6.251,4.584-8.274,7.977c-2.024,3.394-3.036,7.084-3.036,11.072c0,5.894,2.143,10.953,6.429,15.061
		s9.703,6.191,16.191,6.191c4.227,0,8.037-0.834,11.37-2.441c3.334-1.606,5.953-3.929,7.917-6.905l-4.167-2.738
		c-3.869,4.822-8.81,7.203-14.882,7.203c-3.333,0-6.31-0.714-8.988-2.202s-4.763-3.513-6.311-6.132s-2.321-5.477-2.321-8.453
		c0-4.583,1.667-8.512,5-11.727C16.43,451.84,20.597,450.232,25.597,450.232z"/>
	<path fill="#FEFEFE" d="M98.221,453.805c-2.083-2.857-4.464-5-7.202-6.429s-5.774-2.144-9.168-2.144
		c-5.834,0-10.834,2.084-15.001,6.311c-4.167,4.226-6.25,9.286-6.25,15.179c0,6.013,2.083,11.191,6.19,15.358
		c4.107,4.227,9.049,6.311,14.882,6.311c3.274,0,6.251-0.655,9.049-2.024c2.738-1.369,5.238-3.393,7.44-6.071v7.083h5.239v-41.193
		h-5.18V453.805z M96.436,475.473c-1.369,2.5-3.394,4.465-5.953,5.894c-2.56,1.488-5.298,2.202-8.215,2.202
		c-2.857,0-5.536-0.714-8.036-2.202s-4.465-3.513-5.953-6.132s-2.202-5.417-2.202-8.274c0-2.917,0.714-5.655,2.202-8.274
		s3.453-4.643,5.953-6.071s5.179-2.144,8.155-2.144c4.583,0,8.394,1.607,11.548,4.763c3.155,3.155,4.703,7.144,4.703,11.905
		C98.519,470.175,97.805,472.973,96.436,475.473z"/>
	<path fill="#FEFEFE" d="M141.974,447.673c-1.666-0.952-3.214-1.429-4.702-1.429c-1.965,0-3.81,0.596-5.596,1.727
		s-3.512,2.917-5.119,5.298v-6.012h-5.417v41.193h5.417v-13.93c0-7.144,0.356-11.906,1.012-14.228
		c0.833-3.036,2.083-5.298,3.75-6.727s3.334-2.202,5.12-2.202c0.773,0,1.666,0.237,2.797,0.714L141.974,447.673z"/>
	<path fill="#FEFEFE" d="M191.085,482.14c4.167-4.227,6.25-9.286,6.25-15.239c0-6.012-2.083-11.132-6.19-15.357
		c-4.107-4.227-9.108-6.311-14.882-6.311c-3.274,0-6.251,0.655-9.049,2.024c-2.738,1.369-5.238,3.393-7.44,6.131v-23.037h-5.239
		v57.087h5.239v-7.56c2.083,2.857,4.464,5,7.202,6.429s5.774,2.144,9.108,2.144C181.917,488.45,186.918,486.366,191.085,482.14z
		 M164.178,478.568c-3.095-3.215-4.702-7.144-4.702-11.906c0-3.095,0.714-5.893,2.083-8.393c1.369-2.501,3.394-4.465,6.013-5.953
		s5.357-2.202,8.215-2.202s5.477,0.714,7.977,2.202s4.465,3.512,5.953,6.131c1.488,2.62,2.202,5.418,2.202,8.334
		c0,2.917-0.714,5.655-2.202,8.274c-1.488,2.62-3.453,4.644-5.953,6.072s-5.179,2.143-8.155,2.143
		C171.143,483.33,167.274,481.724,164.178,478.568z"/>
	<path fill="#FEFEFE" d="M234.065,445.232c-6.37,0-11.608,2.321-15.775,6.905c-3.81,4.167-5.715,9.107-5.715,14.822
		s2.024,10.774,6.013,15.061s9.167,6.43,15.478,6.43c6.31,0,11.429-2.144,15.417-6.43s6.013-9.286,6.013-15.061
		c0-5.715-1.905-10.655-5.715-14.822C245.672,447.554,240.434,445.232,234.065,445.232z M247.934,475.354
		c-1.429,2.56-3.393,4.524-5.833,5.953c-2.441,1.369-5.12,2.083-8.096,2.083c-2.917,0-5.596-0.714-8.037-2.083
		c-2.44-1.369-4.404-3.394-5.833-5.953s-2.144-5.357-2.144-8.274c0-4.583,1.548-8.513,4.703-11.786
		c3.154-3.274,6.905-4.882,11.311-4.882c4.345,0,8.155,1.607,11.31,4.882c3.155,3.214,4.763,7.144,4.763,11.786
		C250.137,470.056,249.363,472.794,247.934,475.354z"/>
	<polygon fill="#FEFEFE" points="317.7,488.45 317.7,432.731 312.164,432.731 312.164,475.354 275.198,432.731 274.007,432.731 
		274.007,488.45 279.722,488.45 279.722,446.244 316.45,488.45 	"/>
	<polygon fill="#FEFEFE" points="375.621,488.45 375.621,478.211 357.109,478.211 376.931,432.731 343.298,432.731 343.298,443.209 
		361.395,443.209 341.691,488.45 	"/>
	<path fill="#FEFEFE" d="M429.792,479.401l-8.632-4.107c-2.738,2.738-6.071,4.048-9.882,4.048c-3.214,0-5.833-0.893-7.917-2.619
		c-2.083-1.727-3.333-4.048-3.81-7.024h33.098l0.06-1.964c0-6.786-2.024-12.263-6.072-16.37s-9.286-6.191-15.774-6.191
		c-6.072,0-11.132,2.084-15.18,6.191c-4.048,4.167-6.072,9.346-6.072,15.596c0,6.132,2.024,11.191,6.072,15.299
		c4.048,4.048,9.286,6.072,15.715,6.072c4.167,0,7.739-0.715,10.715-2.203C425.03,484.759,427.649,482.497,429.792,479.401z
		 M403.779,456.483c2.143-1.607,4.702-2.381,7.56-2.381c2.679,0,5.001,0.714,6.965,2.143c2.024,1.429,3.334,3.215,4.048,5.477
		h-22.322C401.159,459.222,402.409,457.436,403.779,456.483z"/>
	<path fill="#FEFEFE" d="M459.021,447.852c-1.548,1.071-2.857,2.619-3.811,4.644v-5.238h-8.929v41.193h10.298v-16.608l-0.06-2.024
		c0-5.715,0.536-9.584,1.607-11.548c1.071-1.965,2.44-2.917,3.988-2.917c0.774,0,1.786,0.297,2.977,0.893l3.215-8.929
		c-1.429-0.715-2.857-1.072-4.167-1.072C462.354,446.244,460.627,446.78,459.021,447.852z"/>
	<path fill="#FEFEFE" d="M519.501,477.676c1.904-3.394,2.917-7.024,2.917-10.895c0-3.869-0.953-7.44-2.857-10.774
		c-1.905-3.333-4.584-5.952-7.978-7.857c-3.393-1.965-7.083-2.917-10.953-2.917c-5.357,0-10.119,1.846-14.286,5.596
		c-4.703,4.286-7.084,9.644-7.084,16.072c0,6.013,2.083,11.072,6.25,15.299c4.167,4.167,9.228,6.311,15.12,6.311
		c3.988,0,7.68-0.953,11.013-2.857C514.917,483.688,517.536,481.068,519.501,477.676z M508.726,475.473
		c-2.143,2.262-4.821,3.334-8.036,3.334c-3.214,0-5.893-1.132-7.977-3.334c-2.083-2.202-3.155-5.119-3.155-8.691
		c0-3.452,1.072-6.31,3.215-8.571c2.144-2.203,4.822-3.334,7.977-3.334c3.274,0,5.953,1.071,8.096,3.274
		c2.084,2.202,3.155,5.06,3.155,8.571C511.941,470.354,510.869,473.211,508.726,475.473z"/>
	<path fill="#FEFEFE" d="M568.79,298.258c-6.013,0-10.953,4.881-10.953,10.953v58.218v4.881c3.571,0.238,6.905,1.429,9.703,3.333
		v-55.54h1.19c6.012,0,10.953-4.881,10.953-10.953C579.684,303.139,574.802,298.258,568.79,298.258z"/>
	<path fill="#FEFEFE" d="M544.502,342.904h1.191v6.489c4.107,1.667,7.56,4.762,9.703,8.631v-26.073
		c0-6.072-4.882-10.953-10.953-10.953c-6.013,0-10.954,4.881-10.954,10.953C533.549,338.022,538.49,342.904,544.502,342.904z"/>
	<path fill="#FEFEFE" d="M538.431,384.455h1.19v7.322v96.674h15.775v-79.648h1.19c9.405,0,17.024-7.62,17.024-17.025
		s-7.619-17.025-17.024-17.025h-1.19v-7.322c0-9.405-7.62-17.025-17.025-17.025s-17.025,7.62-17.025,17.025
		C521.406,376.835,529.026,384.455,538.431,384.455z"/>
	<path fill="#FEFEFE" d="M580.934,486.485c1.31,1.31,2.857,1.965,4.762,1.965c1.786,0,3.334-0.536,4.584-1.667
		c1.488-1.31,2.262-3.096,2.262-5.357c0-1.19-0.237-2.263-0.654-3.215s-1.071-1.786-1.905-2.381l-0.773,1.012
		c1.429,1.19,2.083,2.738,2.083,4.524c0,1.667-0.535,2.977-1.547,4.048c-1.072,1.071-2.382,1.607-3.93,1.607
		c-1.012,0-1.964-0.238-2.797-0.715c-0.834-0.476-1.488-1.19-1.965-2.023c-0.477-0.894-0.715-1.846-0.715-2.857
		c0-0.953,0.179-1.786,0.536-2.619c0.357-0.774,0.952-1.488,1.667-2.024l-0.774-1.012c-0.833,0.595-1.487,1.429-1.964,2.381
		s-0.715,2.084-0.715,3.274C578.969,483.509,579.624,485.116,580.934,486.485z"/>
	<path fill="#FEFEFE" d="M591.172,463.746c-0.416-0.417-0.952-0.834-1.606-1.191l-0.536,1.013c0.596,0.356,1.071,0.714,1.31,1.071
		c0.298,0.298,0.477,0.714,0.655,1.19c0.178,0.477,0.237,0.952,0.237,1.429c0,1.012-0.356,1.846-1.071,2.56
		c-0.714,0.715-1.607,1.013-2.679,1.071v-8.631c-1.31,0-2.381,0.356-3.273,1.071c-1.251,0.952-1.846,2.262-1.846,3.929
		c0,1.607,0.595,2.857,1.786,3.81c0.952,0.774,2.023,1.132,3.214,1.132c1.25,0,2.44-0.417,3.453-1.311
		c1.012-0.893,1.548-2.083,1.548-3.631c0-0.714-0.119-1.31-0.298-1.905C591.887,464.698,591.589,464.162,591.172,463.746z
		 M586.47,470.711c-0.893-0.238-1.548-0.655-1.965-1.132c-0.595-0.654-0.893-1.488-0.893-2.44c0-0.595,0.119-1.131,0.357-1.607
		c0.238-0.535,0.535-0.952,0.952-1.25s0.893-0.535,1.548-0.714V470.711L586.47,470.711z"/>
	<path fill="#FEFEFE" d="M582.66,458.686h9.524v-1.25h-3.215c-1.667,0-2.738-0.06-3.274-0.238c-0.714-0.178-1.25-0.476-1.547-0.893
		c-0.357-0.357-0.477-0.773-0.477-1.19c0-0.179,0.06-0.417,0.179-0.655l-1.012-0.654c-0.238,0.357-0.298,0.773-0.298,1.071
		c0,0.477,0.119,0.893,0.416,1.31c0.238,0.417,0.655,0.834,1.251,1.19h-1.369v1.31H582.66z"/>
	<polygon fill="#FEFEFE" points="582.66,446.78 582.66,448.745 579.148,448.745 579.148,449.936 582.66,449.936 582.66,451.602 
		583.732,451.602 583.732,449.936 592.185,449.936 592.185,448.745 583.732,448.745 583.732,446.78 	"/>
	<polygon fill="#FEFEFE" points="580.576,430.351 579.326,430.351 579.326,437.435 580.576,437.435 580.576,434.577 
		592.185,434.577 592.185,433.268 580.576,433.268 	"/>
	<polygon fill="#FEFEFE" points="579.326,414.754 589.864,419.992 579.326,425.231 579.326,425.469 592.185,427.255 
		592.185,426.005 582.899,424.755 592.185,420.171 592.185,419.814 582.957,415.23 592.185,413.98 592.185,412.73 579.326,414.575 	
		"/>
</g>
</svg>
